# xmcd
#
# Track frame offsets:
#	150
#	16843
#	31513
#	48928
#	67390
#	93758
#	112137
#	128084
#	146387
#	161862
#	180285
#
# Disc length: 2637 seconds
#
# Revision: 1
# Processed by: cddbd v1.5.2PL0 Copyright (c) Steve Scherf et al.
# Submitted via: audiograbber 1.83.01
#
DISCID=890a4b0b
DTITLE=Jason Isabell - Something More Than Free
DYEAR=2015
DGENRE=Country
TTITLE0=If It Takes A Lifetime
TTITLE1=24 Frames
TTITLE2=Flagship
TTITLE3=How To Forget
TTITLE4=Children Of Children
TTITLE5=The Life You Chose
TTITLE6=Something More Than Free
TTITLE7=Speed Trap Town
TTITLE8=Hudson Commodore
TTITLE9=Palmetto Rose
TTITLE10=To A Band That I Loved
EXTD=
EXTT0=
EXTT1=
EXTT2=
EXTT3=
EXTT4=
EXTT5=
EXTT6=
EXTT7=
EXTT8=
EXTT9=
EXTT10=
PLAYORDER=
